Coordinates
version=1
nRows=5
nColumns=40
inDegrees=yes

Units are S.I. units (second, meters, Newtons, ...)
Angles are in degrees.

endheader
time	pelvis_tilt	pelvis_list	pelvis_rotation	pelvis_tx	pelvis_ty	pelvis_tz	hip_flexion_r	hip_adduction_r	hip_rotation_r	knee_angle_r	knee_angle_r_beta	ankle_angle_r	subtalar_angle_r	mtp_angle_r	hip_flexion_l	hip_adduction_l	hip_rotation_l	knee_angle_l	knee_angle_l_beta	ankle_angle_l	subtalar_angle_l	mtp_angle_l	lumbar_extension	lumbar_bending	lumbar_rotation	arm_flex_r	arm_add_r	arm_rot_r	elbow_flex_r	pro_sup_r	wrist_flex_r	wrist_dev_r	arm_flex_l	arm_add_l	arm_rot_l	elbow_flex_l	pro_sup_l	wrist_flex_l	wrist_dev_l
      1.01000000	     -1.79369729	     -4.84611709	      1.18298863	      0.10272047	      0.94147553	      1.44466625	     21.07811373	      3.96986476	    -17.61203169	    -24.25819495	     -0.42338537	      0.58059606	    -10.53131330	      2.90309118	     -0.03730844	     15.08318394	     12.99110628	    -46.46939403	     -0.81104393	     -9.40234077	      8.00462566	     -8.95521558	     -0.41536176	      4.90017911	     -4.45717367	     -0.60985840	    -10.88748157	    -25.77092098	     11.92327911	     89.95437384	      0.00000000	      0.00000000	      6.30733876	     12.26166347	      6.80933182	     23.90151647	     89.95437384	      0.00000000	      0.00000000
      1.02000000	     -1.93296396	     -4.93303131	      1.43309198	      0.11127380	      0.94245633	      1.44699158	     20.42451175	      4.24731416	    -17.68255144	    -23.85604677	     -0.41636656	      1.28277511	    -10.24762646	      2.82208678	      1.89452760	     15.46789692	     12.46185399	    -48.90105261	     -0.85348438	     -7.82504546	     10.11916789	     -8.90308517	     -0.27236272	      4.88694739	     -4.23923454	     -0.22571799	    -10.73053610	    -25.84357088	     12.32885985	     89.95437384	      0.00000000	      0.00000000	      5.71103490	     11.98986673	      6.35328155	     22.60015797	     89.95437384	      0.00000000	      0.00000000
      1.03000000	     -2.43766986	     -4.83113796	      1.78558112	      0.11917570	      0.94282520	      1.44892298	     20.36236884	      4.17986300	    -18.05047085	    -23.79166330	     -0.41524286	      1.71492889	    -10.23757882	      2.87128669	      4.44643986	     15.52902773	     11.86046825	    -51.30308173	     -0.89540769	     -6.26312075	     12.54630501	     -8.16261175	      0.21853102	      4.66450104	     -4.15913303	      0.24207221	    -10.58159156	    -25.89894480	     12.66790028	     89.95437384	      0.00000000	      0.00000000	      5.02938245	     11.80752757	      5.67217047	     21.41812326	     89.95437384	      0.00000000	      0.00000000
      1.04000000	     -2.23129086	     -4.82643895	      2.01331188	      0.12761014	      0.94446408	      1.45115342	     19.30240588	      4.42061246	    -17.99388886	    -23.34401159	     -0.40742986	      2.27290458	    -10.10326537	      2.79483751	      5.86405652	     15.71788348	     11.59976805	    -53.02395254	     -0.92544255	     -4.48293784	     14.17439137	     -8.08963176	     -0.10968614	      4.55758296	     -3.84367090	      0.74603166	    -10.44278536	    -25.93867856	     13.13476830	     89.95437384	      0.00000000	      0.00000000	      4.50233656	     11.60077744	      5.21248921	     20.16354257	     89.95437384	      0.00000000	      0.00000000
      1.05000000	     -2.64538806	     -4.67308058	      2.39867225	      0.13534108	      0.94508015	      1.45285527	     19.06908390	      4.29820878	    -18.44024357	    -23.14480840	     -0.40395311	      2.73014985	     -9.93942348	      3.37722758	      8.35157317	     15.49747778	     10.86322862	    -55.12824124	     -0.96216932	     -0.32583475	     15.25340306	      5.64352016	      0.23316027	      4.27174572	     -3.64280434	      1.15564677	    -10.26950965	    -26.39552814	     13.67548969	     89.95437384	      0.00000000	      0.00000000	      3.88199430	     11.46881466	      4.21272497	     19.13911427	     89.95437384	      0.00000000	      0.00000000
